<svg width="28" height="36" viewBox="0 0 28 36" fill="none" xmlns="http://www.w3.org/2000/svg">
<path d="M15 5C15 4.44772 14.5523 4 14 4C13.4477 4 13 4.44772 13 5H15ZM13.2929 25.7071C13.6834 26.0976 14.3166 26.0976 14.7071 25.7071L21.0711 19.3431C21.4616 18.9526 21.4616 18.3195 21.0711 17.9289C20.6805 17.5384 20.0474 17.5384 19.6569 17.9289L14 23.5858L8.34315 17.9289C7.95262 17.5384 7.31946 17.5384 6.92893 17.9289C6.53841 18.3195 6.53841 18.9526 6.92893 19.3431L13.2929 25.7071ZM13 5L13 25H15L15 5H13Z" fill="currentColor"/>
<line x1="3" y1="30" x2="25" y2="30" stroke="currentColor" stroke-width="2" stroke-linecap="round"/>
</svg>
