<svg width="50" height="50" viewBox="0 0 51 51" fill="none" xmlns="http://www.w3.org/2000/svg">
<rect x="0.333374" width="50" height="50" rx="25" fill="#FFBA08"/>
<path d="M38.0929 31.6838V12.5871C38.0929 11.005 36.8488 9.72253 35.3153 9.72253H16.7981C14.2416 9.72253 12.1688 11.8602 12.1688 14.4967V36.458C12.1688 38.5676 13.8267 40.2774 15.8723 40.2774H37.167C37.6788 40.2774 38.0929 39.8503 38.0929 39.3225C38.0929 38.7947 37.6762 38.3677 37.167 38.3677H36.2412V34.3723C37.3175 33.9754 38.0929 32.9251 38.0929 31.6838ZM14.0205 14.4967C14.0205 12.9147 15.2641 11.6322 16.7981 11.6322H17.724V32.6387H15.8723C15.1946 32.6387 14.5674 32.8409 14.0205 33.1698V14.4967ZM34.3894 38.3677H15.8723C14.8515 38.3677 14.0205 37.5107 14.0205 36.458C14.0205 35.4053 14.8515 34.5483 15.8723 34.5483H34.3894V38.3677ZM35.3153 32.6387H19.5757V11.6322H35.3153C35.8245 11.6322 36.2412 12.0601 36.2412 12.5871V31.6838C36.2412 32.209 35.8245 32.6387 35.3153 32.6387ZM32.5377 17.3612H23.2791C22.7699 17.3612 22.3533 17.7909 22.3533 18.3161C22.3533 18.8412 22.7699 19.2709 23.2791 19.2709H32.5377C33.0495 19.2709 33.4636 18.8439 33.4636 18.3161C33.4636 17.7883 33.0469 17.3612 32.5377 17.3612ZM32.5377 23.0903H23.2791C22.7699 23.0903 22.3533 23.52 22.3533 24.0451C22.3533 24.5703 22.7699 25 23.2791 25H32.5377C33.0495 25 33.4636 24.5729 33.4636 24.0451C33.4636 23.5173 33.0469 23.0903 32.5377 23.0903Z" fill="#221D41"/>
</svg>
