<svg width="50" height="50" viewBox="0 0 51 50" fill="none" xmlns="http://www.w3.org/2000/svg">
<rect width="50" height="50" rx="25" fill="#FFBA08"/>
<path d="M26.5022 14.6628C26.5022 14.6628 25.5522 25.475 12.2522 34.126" stroke="#221D41" stroke-width="2" stroke-linecap="round"/>
<path d="M10.364 14.6628H30.6168" stroke="#221D41" stroke-width="2" stroke-linecap="round"/>
<path d="M20.4875 11.3912V14.6628" stroke="#221D41" stroke-width="2" stroke-linecap="round"/>
<path d="M15.9513 19.0922C15.9513 19.0922 20.9625 27.85 25 30.5397" stroke="#221D41" stroke-width="2" stroke-linecap="round"/>
<path d="M25.9203 38.6088L32.2972 23.765C32.3384 23.671 32.4061 23.5911 32.4921 23.5349C32.578 23.4788 32.6784 23.4489 32.7811 23.4489C32.8837 23.4489 32.9841 23.4788 33.0701 23.5349C33.156 23.5911 33.2237 23.671 33.265 23.765L39.6359 38.6088" stroke="#221D41" stroke-width="2" stroke-linecap="round"/>
<path d="M28.1172 33.4906H37.445" stroke="#221D41" stroke-width="2" stroke-linecap="round"/>
</svg>
