<svg width="33" height="32" viewBox="0 0 33 32" fill="none" xmlns="http://www.w3.org/2000/svg">
<path d="M27.0093 24.066C26.8093 23.842 26.7173 23.428 26.6153 22.986C26.5153 22.546 26.4013 22.072 26.0393 21.766V21.764C25.9072 21.6495 25.7563 21.5589 25.5933 21.496C26.0973 20.006 25.8993 18.522 25.3933 17.182C24.7693 15.536 23.6833 14.102 22.8533 13.122C21.9253 11.95 21.0173 10.838 21.0333 9.19598C21.0613 6.68798 21.3093 2.03798 16.8973 2.03198C16.7173 2.03198 16.5313 2.03998 16.3373 2.05598C11.4053 2.45198 12.7133 7.66198 12.6393 9.40598C12.5493 10.682 12.2913 11.686 11.4133 12.934C10.3833 14.16 8.93328 16.142 8.24528 18.208C7.92128 19.182 7.76528 20.176 7.90928 21.116C7.86328 21.156 7.82128 21.198 7.78128 21.242C7.47928 21.564 7.25528 21.956 7.00528 22.22C6.77328 22.452 6.44128 22.54 6.07728 22.67C5.71128 22.802 5.31128 22.994 5.06928 23.46V23.462C4.96192 23.6715 4.90896 23.9046 4.91528 24.14C4.91528 24.356 4.94728 24.574 4.97928 24.784C5.04728 25.224 5.11528 25.638 5.02528 25.918C4.73728 26.708 4.69928 27.252 4.90328 27.648C5.10728 28.046 5.52328 28.22 5.99728 28.318C6.94328 28.518 8.22529 28.468 9.23529 29.002C10.3153 29.568 11.4133 29.768 12.2873 29.57C12.5929 29.51 12.88 29.3787 13.1254 29.1869C13.3707 28.9951 13.5673 28.7481 13.6993 28.466C14.3833 28.462 15.1333 28.174 16.3353 28.106C17.1513 28.042 18.1713 28.396 19.3413 28.332C19.3716 28.459 19.4173 28.5819 19.4773 28.698L19.4793 28.7C19.9333 29.61 20.7793 30.024 21.6793 29.954C22.5793 29.882 23.5353 29.352 24.3093 28.43C25.0493 27.534 26.2733 27.164 27.0853 26.674C27.4913 26.428 27.8213 26.122 27.8453 25.676C27.8713 25.232 27.6093 24.734 27.0093 24.066Z" fill="#202020"/>
<path d="M27.4752 25.656C27.4612 25.93 27.2612 26.136 26.8952 26.356C26.1592 26.8 24.8572 27.184 24.0272 28.192C23.3032 29.052 22.4232 29.522 21.6472 29.584C20.8732 29.644 20.2052 29.324 19.8092 28.532V28.528C19.5632 28.062 19.6652 27.328 19.8712 26.554C20.0772 25.78 20.3732 24.984 20.4132 24.338C20.4532 23.508 20.5012 22.784 20.6412 22.226C20.7812 21.666 20.9992 21.29 21.3872 21.076C21.4051 21.0663 21.4231 21.057 21.4412 21.048C21.4852 21.766 21.8412 22.498 22.4692 22.656C23.1552 22.836 24.1452 22.248 24.5632 21.766L24.8072 21.758C25.1752 21.748 25.4812 21.77 25.7972 22.044C26.0392 22.248 26.1552 22.638 26.2552 23.07C26.3552 23.504 26.4352 23.976 26.7332 24.312C27.3072 24.952 27.4932 25.38 27.4752 25.656ZM13.5172 27.686V27.692C13.4492 28.562 12.9572 29.036 12.2052 29.208C11.4512 29.38 10.4292 29.208 9.40922 28.676C8.27922 28.076 6.93522 28.136 6.07522 27.956C5.64322 27.866 5.36122 27.73 5.23322 27.48C5.10522 27.228 5.10122 26.79 5.37522 26.04V26.038L5.37722 26.034C5.51322 25.616 5.41322 25.158 5.34722 24.728C5.28122 24.3 5.24922 23.908 5.39522 23.636L5.39722 23.634C5.58522 23.272 5.86122 23.142 6.20322 23.02C6.54322 22.896 6.94922 22.8 7.26922 22.48L7.27122 22.478C7.56722 22.164 7.79322 21.772 8.05322 21.494C8.27322 21.26 8.49322 21.104 8.82322 21.102H8.83322C8.89554 21.1025 8.95772 21.1079 9.01922 21.118C9.45922 21.184 9.84122 21.492 10.2112 21.992L11.2772 23.934V23.936C11.5612 24.528 12.1592 25.18 12.6672 25.844C13.1752 26.51 13.5672 27.176 13.5172 27.686Z" fill="#F8BF11"/>
<path d="M18.8332 9.576C18.7472 9.408 18.5732 9.24801 18.2732 9.12601C17.6532 8.86001 17.3852 8.842 17.0392 8.618C16.4792 8.256 16.0132 8.13 15.6272 8.13C15.4419 8.1309 15.2581 8.16267 15.0832 8.224C14.6112 8.384 14.2992 8.724 14.1032 8.908C14.0632 8.946 14.0152 8.978 13.8952 9.068C13.7752 9.154 13.5952 9.288 13.3352 9.484C13.1012 9.65601 13.0272 9.884 13.1072 10.148C13.1872 10.412 13.4412 10.718 13.9072 10.982C14.1972 11.152 14.3972 11.382 14.6252 11.564C14.7397 11.6592 14.867 11.738 15.0032 11.798C15.1472 11.86 15.3152 11.902 15.5232 11.914C16.0192 11.944 16.3832 11.794 16.7032 11.612C17.0232 11.428 17.2952 11.204 17.6072 11.102C18.2472 10.902 18.7052 10.5 18.8492 10.116C18.8856 10.0301 18.903 9.93745 18.9002 9.84426C18.8974 9.75106 18.8746 9.65956 18.8332 9.576Z" fill="#D6A312"/>
<path d="M17.2093 10.52C16.6993 10.786 16.1053 11.108 15.4713 11.108C14.8393 11.108 14.3393 10.816 13.9813 10.53C13.8013 10.39 13.6553 10.246 13.5453 10.144C13.3533 9.99404 13.3773 9.78204 13.4553 9.78804C13.5873 9.80404 13.6073 9.97804 13.6893 10.056C13.8013 10.16 13.9413 10.296 14.1113 10.43C14.4513 10.7 14.9053 10.962 15.4713 10.962C16.0393 10.962 16.6993 10.63 17.1033 10.402C17.3333 10.274 17.6233 10.044 17.8613 9.87004C18.0413 9.73604 18.0353 9.57604 18.1853 9.59404C18.3353 9.61204 18.2253 9.77204 18.0153 9.95404C17.8053 10.138 17.4753 10.382 17.2093 10.52Z" fill="#202020"/>
<path d="M25.0073 21.388C24.938 21.3859 24.8686 21.3859 24.7993 21.388H24.7793C24.9553 20.834 24.5673 20.428 23.5373 19.962C22.4693 19.492 21.6173 19.538 21.4733 20.492C21.4633 20.542 21.4553 20.592 21.4513 20.644C21.3685 20.6734 21.2882 20.7095 21.2113 20.752C20.7073 21.026 20.4333 21.524 20.2813 22.136C20.1293 22.746 20.0853 23.484 20.0433 24.316C20.0173 24.732 19.8453 25.296 19.6713 25.896C17.9213 27.144 15.4913 27.684 13.4273 26.276C13.2873 26.056 13.1273 25.836 12.9613 25.62C12.8559 25.4823 12.7493 25.3457 12.6413 25.21C12.825 25.2149 13.0077 25.1809 13.1773 25.11C13.262 25.0745 13.3387 25.0221 13.4026 24.9561C13.4666 24.8901 13.5165 24.8118 13.5493 24.726C13.6753 24.386 13.5493 23.91 13.1453 23.366C12.7433 22.82 12.0613 22.206 11.0593 21.59C10.3233 21.13 9.91131 20.57 9.71931 19.962C9.52531 19.352 9.55131 18.692 9.69931 18.042C9.98531 16.792 10.7193 15.576 11.1853 14.814C11.3113 14.722 11.2313 14.986 10.7133 15.948C10.2493 16.828 9.37931 18.858 10.5693 20.444C10.6013 19.316 10.8693 18.164 11.3233 17.09C11.9813 15.596 13.3593 13.008 13.4673 10.944C13.5253 10.984 13.7173 11.116 13.8053 11.164C14.0573 11.314 14.2473 11.532 14.4933 11.73C14.8141 12.0008 15.2237 12.1432 15.6433 12.13C16.1233 12.13 16.4973 11.972 16.8073 11.794C17.1473 11.602 17.4153 11.386 17.6733 11.304C18.2133 11.134 18.6453 10.834 18.8893 10.484C19.3093 12.144 20.2893 14.538 20.9173 15.706C21.2513 16.326 21.9173 17.644 22.2033 19.23C22.3853 19.226 22.5853 19.25 22.8013 19.306C23.5513 17.36 22.1633 15.262 21.5293 14.678C21.2733 14.43 21.2593 14.318 21.3893 14.324C22.0753 14.932 22.9793 16.158 23.3093 17.54C23.4593 18.17 23.4893 18.832 23.3293 19.486C23.4093 19.52 23.4893 19.554 23.5693 19.594C24.7753 20.18 25.2213 20.69 25.0073 21.388Z" fill="white"/>
<path d="M16.4132 16.124C15.3012 16.128 14.2152 16.626 13.2972 17.556C12.3772 18.484 11.6692 19.8 11.2612 21.332L11.3832 21.408V21.416C12.3232 22.012 12.9932 22.612 13.4072 23.172C13.8452 23.764 14.0392 24.34 13.8532 24.84C13.755 25.0926 13.5609 25.2961 13.3132 25.406L13.2312 25.436C13.3792 25.63 13.5232 25.83 13.6572 26.036C15.5452 27.292 17.7412 26.828 19.3912 25.692C19.5512 25.136 19.6972 24.62 19.7172 24.296C19.7592 23.466 19.8012 22.712 19.9652 22.056C20.1292 21.396 20.4492 20.796 21.0532 20.466C21.0872 20.446 21.1212 20.436 21.1552 20.42C21.1659 20.3565 21.1806 20.2937 21.1992 20.232C20.7152 18.988 20.0172 17.952 19.1792 17.232C18.3392 16.512 17.3852 16.13 16.4152 16.124H16.4132ZM21.1532 20.434L21.1492 20.444V20.44L21.1512 20.432L21.1532 20.434Z" fill="#E6E6E6"/>
<path d="M18.8893 7.666C18.8979 8.13929 18.7464 8.60163 18.4593 8.978C18.3157 8.91385 18.1703 8.85382 18.0233 8.798L17.7693 8.708C17.8273 8.638 17.9393 8.558 17.9833 8.454C18.0466 8.29965 18.0805 8.13481 18.0833 7.968L18.0853 7.948C18.0902 7.78775 18.0665 7.6279 18.0153 7.476C17.975 7.33727 17.9008 7.21078 17.7993 7.108C17.759 7.06528 17.7108 7.03093 17.6572 7.00691C17.6037 6.98288 17.5459 6.96966 17.4873 6.968H17.4733C17.3613 6.96955 17.2538 7.01227 17.1713 7.088C17.0621 7.18254 16.9782 7.30285 16.9273 7.438C16.8642 7.59244 16.8303 7.75721 16.8273 7.924V7.944C16.8241 8.03769 16.8301 8.13147 16.8453 8.224C16.6184 8.11927 16.3811 8.03883 16.1373 7.984C16.1257 7.89577 16.119 7.80697 16.1173 7.718V7.692C16.1088 7.38462 16.1689 7.07923 16.2933 6.798C16.3992 6.53906 16.5717 6.31274 16.7933 6.142C16.9893 5.98371 17.2333 5.89694 17.4853 5.896H17.4973C17.7473 5.896 17.9613 5.968 18.1813 6.128C18.4078 6.29381 18.5854 6.51768 18.6953 6.776C18.8213 7.052 18.8833 7.322 18.8893 7.642L18.8913 7.666H18.8893ZM15.1093 7.994C14.9135 8.05002 14.7268 8.13424 14.5553 8.244C14.5687 8.14452 14.57 8.04379 14.5593 7.944V7.928C14.547 7.79585 14.5147 7.66636 14.4633 7.544C14.4221 7.43633 14.3564 7.33976 14.2713 7.262C14.24 7.23132 14.2027 7.20748 14.1617 7.19198C14.1208 7.17649 14.077 7.16968 14.0333 7.172C13.9493 7.18 13.8793 7.22 13.8133 7.302C13.743 7.39372 13.6951 7.50054 13.6733 7.614C13.6421 7.7483 13.6333 7.88683 13.6473 8.024V8.04C13.6588 8.17291 13.6912 8.30318 13.7433 8.426C13.7912 8.54896 13.8713 8.65674 13.9753 8.738L13.7713 8.898L13.6153 9.01C13.4767 8.87372 13.3678 8.71031 13.2953 8.53C13.1893 8.29 13.1313 8.05 13.1153 7.768V7.766C13.097 7.50267 13.1275 7.23823 13.2053 6.986C13.265 6.76603 13.3799 6.56498 13.5393 6.402C13.6061 6.3282 13.6876 6.26911 13.7785 6.22848C13.8694 6.18785 13.9677 6.16658 14.0673 6.166C14.2353 6.166 14.3833 6.222 14.5373 6.346C14.7132 6.4905 14.8501 6.67686 14.9353 6.888C15.0413 7.128 15.0953 7.368 15.1133 7.652C15.1193 7.772 15.1193 7.884 15.1093 7.994Z" fill="white"/>
<path d="M15.9452 8.67002C15.9652 8.73802 16.0752 8.72802 16.1392 8.76002C16.1932 8.78802 16.2392 8.85002 16.2992 8.85202C16.3592 8.85402 16.4512 8.83202 16.4592 8.77202C16.4692 8.69602 16.3552 8.64602 16.2832 8.61802C16.1892 8.58002 16.0692 8.56202 15.9812 8.61202C15.9612 8.62202 15.9392 8.64602 15.9452 8.67002ZM15.3012 8.67002C15.2812 8.73802 15.1712 8.72802 15.1092 8.76002C15.0532 8.78802 15.0092 8.85002 14.9472 8.85202C14.8872 8.85402 14.7952 8.83202 14.7872 8.77202C14.7772 8.69602 14.8912 8.64602 14.9632 8.61802C15.0572 8.58002 15.1792 8.56202 15.2672 8.61202C15.2872 8.62202 15.3072 8.64602 15.3012 8.67002Z" fill="#202020"/>
</svg>
