<svg width="33" height="32" viewBox="0 0 33 32" fill="none" xmlns="http://www.w3.org/2000/svg">
<g clip-path="url(#clip0_215_431)">
<path fill-rule="evenodd" clip-rule="evenodd" d="M0.666748 16C0.666748 7.16344 7.83018 0 16.6667 0C25.5032 0 32.6667 7.16344 32.6667 16C32.6667 21.5189 29.8725 26.3853 25.6214 29.2614L11.1347 8.9801C10.8652 8.60277 10.3828 8.44279 9.94122 8.5843C9.49965 8.7258 9.20008 9.13638 9.20008 9.60009V25.6H11.3334V12.9286L23.7705 30.3405C21.6302 31.4029 19.2182 32 16.6667 32C7.83018 32 0.666748 24.8365 0.666748 16ZM22.0001 21.3333V8.53333H24.1334V21.3333H22.0001Z" fill="black"/>
</g>
<defs>
<clipPath id="clip0_215_431">
<rect width="32" height="32" fill="white" transform="translate(0.666748)"/>
</clipPath>
</defs>
</svg>
