<svg width="33" height="32" viewBox="0 0 33 32" fill="none" xmlns="http://www.w3.org/2000/svg">
<g clip-path="url(#clip0_215_414)">
<path d="M26.4215 10.978C26.0895 10.8637 25.7456 10.7556 25.3914 10.6533C25.4496 10.4158 25.503 10.1813 25.5505 9.95075C26.3303 6.16561 25.8205 3.11628 24.0795 2.11231C22.4101 1.14964 19.68 2.15338 16.9227 4.55297C16.6576 4.78372 16.3917 5.02802 16.1259 5.28405C15.9488 5.11465 15.772 4.95095 15.5957 4.79437C12.7059 2.22857 9.80942 1.1473 8.07016 2.15418C6.40238 3.11964 5.90849 5.9863 6.6104 9.5735C6.67818 9.91999 6.75741 10.2738 6.84701 10.6336C6.43707 10.7499 6.04132 10.874 5.66265 11.006C2.27475 12.1871 0.111084 14.0383 0.111084 15.9585C0.111084 17.9417 2.43378 19.9308 5.96254 21.1369C6.24102 21.2321 6.52997 21.3221 6.82776 21.4075C6.7311 21.7966 6.64702 22.1779 6.57645 22.5498C5.90718 26.0747 6.42984 28.8737 8.09317 29.8331C9.81124 30.8238 12.6946 29.8054 15.5024 27.3512C15.7243 27.1572 15.947 26.9514 16.1701 26.7358C16.4593 27.0142 16.748 27.2778 17.0352 27.525C19.7548 29.8653 22.4408 30.8103 24.1026 29.8483C25.819 28.8547 26.3768 25.8479 25.6526 22.1898C25.5973 21.9104 25.5329 21.625 25.4607 21.3345C25.6631 21.2746 25.8619 21.2128 26.0558 21.1485C29.7243 19.9331 32.1111 17.9681 32.1111 15.9585C32.1111 14.0314 29.8776 12.1677 26.4215 10.978ZM25.6258 19.8509C25.4509 19.9089 25.2713 19.9649 25.0884 20.0191C24.6834 18.737 24.1368 17.3737 23.4679 15.9652C24.1062 14.5902 24.6317 13.2443 25.0253 11.9705C25.3527 12.0652 25.6704 12.1651 25.9765 12.2705C28.9378 13.2899 30.7441 14.7972 30.7441 15.9585C30.7441 17.1955 28.7933 18.8014 25.6258 19.8509ZM24.3116 22.4553C24.6318 24.0728 24.6775 25.5353 24.4654 26.6786C24.2748 27.706 23.8915 28.3909 23.4176 28.6652C22.4092 29.2489 20.2526 28.4902 17.9267 26.4887C17.6601 26.2593 17.3915 26.0143 17.1221 25.755C18.0238 24.7689 18.9249 23.6225 19.8045 22.3492C21.3514 22.212 22.8129 21.9876 24.1383 21.6812C24.2036 21.9445 24.2616 22.2027 24.3116 22.4553ZM11.0206 28.5643C10.0353 28.9123 9.25059 28.9223 8.77623 28.6488C7.76685 28.0666 7.34723 25.8193 7.91961 22.8048C7.98517 22.4595 8.06321 22.1049 8.15315 21.7424C9.46402 22.0323 10.9148 22.2409 12.4655 22.3666C13.3509 23.6124 14.2781 24.7576 15.2125 25.7603C15.0083 25.9574 14.805 26.145 14.6028 26.3218C13.3612 27.4071 12.1171 28.1771 11.0206 28.5643ZM6.40466 19.8434C4.84431 19.3101 3.55571 18.6169 2.67244 17.8605C1.87877 17.1809 1.47806 16.5061 1.47806 15.9585C1.47806 14.7933 3.21527 13.307 6.11263 12.2969C6.46418 12.1743 6.8322 12.0588 7.21411 11.9503C7.61454 13.2528 8.13982 14.6147 8.77372 15.9918C8.13162 17.3893 7.59888 18.7729 7.19452 20.0907C6.92225 20.0124 6.65847 19.9301 6.40466 19.8434ZM7.95197 9.31098C7.35059 6.23755 7.74999 3.91907 8.75504 3.33728C9.82559 2.71751 12.1929 3.60118 14.6879 5.81662C14.8474 5.95822 15.0075 6.10643 15.1681 6.25977C14.2384 7.2581 13.3197 8.39467 12.4421 9.6332C10.9371 9.77269 9.49648 9.99677 8.17195 10.2968C8.08867 9.96185 8.01491 9.63274 7.95197 9.31098ZM21.7553 12.7194C21.4387 12.1725 21.1136 11.6385 20.7822 11.119C21.8032 11.2481 22.7814 11.4194 23.7001 11.6291C23.4243 12.513 23.0805 13.4372 22.6759 14.3846C22.3856 13.8335 22.0786 13.2779 21.7553 12.7194ZM16.1263 7.23674C16.7569 7.91985 17.3883 8.68254 18.0094 9.51005C17.3836 9.48049 16.7499 9.46511 16.1111 9.46511C15.4783 9.46511 14.8493 9.48015 14.2273 9.5092C14.849 8.68938 15.486 7.92771 16.1263 7.23674ZM10.4613 12.7288C10.145 13.2773 9.84371 13.8299 9.558 14.3836C9.15991 13.4395 8.81935 12.5111 8.54116 11.6146C9.45416 11.4103 10.4278 11.2433 11.4423 11.1167C11.1062 11.6409 10.7785 12.1789 10.4613 12.7288ZM11.4715 20.8979C10.4233 20.7809 9.43508 20.6225 8.5223 20.4238C8.80494 19.5114 9.15302 18.5631 9.55954 17.5987C9.84599 18.152 10.1485 18.7048 10.4667 19.2545C10.7909 19.8144 11.1268 20.363 11.4715 20.8979ZM16.1642 24.7766C15.5163 24.0776 14.87 23.3043 14.2388 22.4725C14.8515 22.4965 15.4762 22.5089 16.1111 22.5089C16.7633 22.5089 17.4081 22.4942 18.0428 22.4659C17.4196 23.3127 16.7904 24.0871 16.1642 24.7766ZM22.6889 17.5496C23.1167 18.5244 23.4772 19.4677 23.7635 20.3645C22.8357 20.5762 21.8339 20.7467 20.7785 20.8734C21.1107 20.3469 21.4386 19.8038 21.7608 19.2451C22.0868 18.6798 22.3963 18.1137 22.6889 17.5496ZM20.5767 18.5621C20.0764 19.4294 19.5629 20.2574 19.0415 21.039C18.092 21.1068 17.111 21.1418 16.1111 21.1418C15.1153 21.1418 14.1466 21.1109 13.2138 21.0503C12.6715 20.2585 12.1468 19.4281 11.6497 18.5696C11.154 17.7134 10.6979 16.8499 10.2845 15.9913C10.6978 15.1307 11.1528 14.2663 11.6457 13.4116L11.6456 13.4118C12.1397 12.5548 12.6598 11.7285 13.1972 10.9416C14.1489 10.8697 15.1248 10.8321 16.111 10.8321C17.1017 10.8321 18.0789 10.87 19.0303 10.9425C19.5595 11.7236 20.076 12.5473 20.5722 13.4044C21.0739 14.2711 21.5348 15.1297 21.9517 15.9719C21.5361 16.8285 21.0762 17.6958 20.5767 18.5621ZM23.3967 3.29662C24.4683 3.91457 24.885 6.40678 24.2117 9.67483C24.1688 9.88336 24.1204 10.0958 24.0679 10.311C22.7403 10.0047 21.2986 9.77673 19.7892 9.63513C18.91 8.38299 17.9988 7.24465 17.0842 6.25914C17.3301 6.02259 17.5756 5.79703 17.8202 5.58417C20.1826 3.52821 22.3906 2.71648 23.3967 3.29662ZM16.1111 13.101C17.6892 13.101 18.9686 14.3803 18.9686 15.9585C18.9686 17.5366 17.6892 18.816 16.1111 18.816C14.533 18.816 13.2536 17.5366 13.2536 15.9585C13.2536 14.3803 14.533 13.101 16.1111 13.101Z" fill="#00D8FF"/>
</g>
<defs>
<clipPath id="clip0_215_414">
<rect width="32" height="32" fill="white" transform="translate(0.111084)"/>
</clipPath>
</defs>
</svg>
