<svg width="24" height="24" viewBox="0 0 25 24" fill="none" xmlns="http://www.w3.org/2000/svg">
<g clip-path="url(#clip0_212_142)">
<path d="M12.6666 24C19.294 24 24.6666 18.6274 24.6666 12C24.6666 5.37258 19.294 0 12.6666 0C6.03921 0 0.666626 5.37258 0.666626 12C0.666626 18.6274 6.03921 24 12.6666 24Z" fill="#F0F0F0"/>
<path d="M23.9205 16.1733C24.4029 14.8734 24.6669 13.4673 24.6669 11.9995C24.6669 10.5316 24.4029 9.12555 23.9205 7.82556H1.41326C0.930917 9.12555 0.66687 10.5316 0.66687 11.9995C0.66687 13.4673 0.930917 14.8734 1.41326 16.1733L12.6669 17.2168L23.9205 16.1733Z" fill="#0052B4"/>
<path d="M12.6669 23.9995C17.8265 23.9995 22.225 20.743 23.9205 16.1734H1.41333C3.10885 20.743 7.50736 23.9995 12.6669 23.9995Z" fill="#D80027"/>
</g>
<defs>
<clipPath id="clip0_212_142">
<rect width="24" height="24" fill="white" transform="translate(0.666626)"/>
</clipPath>
</defs>
</svg>
