<svg width="33" height="32" viewBox="0 0 33 32" fill="none" xmlns="http://www.w3.org/2000/svg">
<path d="M26.8182 17.572C25.9389 17.5731 25.0713 17.7742 24.2812 18.16C24.0338 17.7494 23.8427 17.3075 23.7132 16.846C23.6387 16.4842 23.6215 16.1131 23.6622 15.746C23.7476 15.3421 23.8585 14.9439 23.9942 14.554C23.9892 14.503 23.9332 14.262 23.3702 14.254C22.8072 14.246 22.3222 14.361 22.2702 14.51C22.1724 14.7821 22.0939 15.0608 22.0352 15.344C21.5692 16.4935 20.9957 17.5964 20.3222 18.638C19.9448 18.0194 19.7896 17.2906 19.8822 16.572C19.9676 16.1681 20.0785 15.7699 20.2142 15.38C20.2092 15.329 20.1532 15.088 19.5902 15.08C19.0272 15.072 18.5422 15.187 18.4902 15.336C18.4382 15.485 18.3722 15.836 18.2552 16.17C18.1382 16.504 16.7722 19.556 16.4142 20.343C16.2302 20.743 16.0712 21.069 15.9592 21.289C15.9538 21.3033 15.9472 21.317 15.9392 21.33C15.8392 21.519 15.7862 21.622 15.7862 21.622V21.627C15.7092 21.765 15.6272 21.893 15.5862 21.893C15.5146 21.6073 15.5181 21.308 15.5962 21.024C15.7962 19.965 16.2862 18.319 16.2812 18.262C16.2812 18.231 16.3732 17.945 15.9642 17.797C15.8693 17.7518 15.7628 17.7372 15.6593 17.7551C15.5558 17.773 15.4603 17.8226 15.3862 17.897C15.3502 17.897 15.3252 17.984 15.3252 17.984C15.3252 17.984 15.7702 16.133 14.4762 16.133C13.9722 16.2343 13.4937 16.4355 13.0687 16.7245C12.6436 17.0135 12.2807 17.3846 12.0012 17.816C11.6532 18.005 10.9122 18.409 10.1192 18.844C9.81916 19.013 9.50516 19.182 9.21416 19.344C9.19416 19.324 9.17316 19.298 9.15316 19.278C7.57816 17.6 4.68316 16.416 4.80816 14.171C4.85416 13.353 5.13516 11.205 10.3672 8.59598C14.6732 6.47398 18.1002 7.06198 18.6932 8.36598C19.5422 10.228 16.8572 13.685 12.4082 14.186C11.916 14.2858 11.4076 14.2738 10.9207 14.1507C10.4338 14.0277 9.98079 13.7967 9.59516 13.475C9.36016 13.219 9.32416 13.204 9.23716 13.255C9.09416 13.332 9.18616 13.562 9.23716 13.695C9.40688 14.0021 9.63645 14.2721 9.91229 14.4891C10.1881 14.706 10.5047 14.8654 10.8432 14.958C12.5934 15.3362 14.4182 15.1554 16.0602 14.441C18.7602 13.398 20.8602 10.498 20.2442 8.06898C19.6252 5.60398 15.5342 4.79098 11.6622 6.16898C9.23691 6.98506 6.99599 8.27048 5.06716 9.95198C2.93416 11.947 2.59716 13.68 2.73516 14.407C3.23516 16.985 6.78616 18.662 8.20716 19.907C8.13516 19.948 8.06916 19.984 8.01316 20.014C7.30216 20.367 4.59216 21.784 3.91316 23.282C3.14616 24.982 4.03616 26.197 4.62416 26.361C5.51016 26.5731 6.44028 26.5032 7.28467 26.1612C8.12905 25.8191 8.84556 25.2219 9.33416 24.453C9.75022 23.8152 10.006 23.0863 10.0796 22.3284C10.1533 21.5704 10.0426 20.8059 9.75716 20.1C9.75234 20.0886 9.74557 20.0781 9.73716 20.069L10.2942 19.742C10.6572 19.527 11.0152 19.328 11.3222 19.164C11.114 19.7644 10.9918 20.3913 10.9592 21.026C10.8885 21.9988 11.1862 22.9625 11.7932 23.726C11.8855 23.8055 11.9927 23.8659 12.1086 23.9036C12.2245 23.9414 12.3467 23.9558 12.4682 23.946C13.0682 23.946 13.3432 23.446 13.6442 22.852C14.0122 22.126 14.3442 21.282 14.3442 21.282C14.3442 21.282 13.9302 23.563 15.0552 23.563C15.4642 23.563 15.8782 23.031 16.0632 22.763V22.768C16.0632 22.768 16.0732 22.753 16.0942 22.717L16.1602 22.61V22.6C16.3242 22.314 16.6922 21.664 17.2392 20.585C17.9452 19.194 18.6252 17.455 18.6252 17.455C18.6907 17.8372 18.7813 18.2146 18.8962 18.585C19.0609 19.0339 19.2556 19.4712 19.4792 19.894C19.3152 20.124 19.2132 20.252 19.2132 20.252L19.2182 20.257C19.0852 20.431 18.9422 20.62 18.7832 20.804C18.3101 21.3241 17.8712 21.8742 17.4692 22.451C17.4094 22.5479 17.3889 22.6639 17.4117 22.7754C17.4346 22.8869 17.4991 22.9854 17.5922 23.051C17.8027 23.1605 18.0426 23.2001 18.2772 23.164C18.6306 23.144 18.9781 23.0646 19.3052 22.929C19.6212 22.8178 19.9193 22.6611 20.1902 22.464C20.4694 22.2705 20.6942 22.0085 20.8428 21.7031C20.9915 21.3976 21.0591 21.0591 21.0392 20.72C21.0077 20.2928 20.8986 19.875 20.7172 19.487C20.7682 19.415 20.8172 19.344 20.8652 19.272C21.4337 18.4234 21.9461 17.5385 22.3992 16.623C22.4647 17.0052 22.5553 17.3826 22.6702 17.753C22.806 18.1409 22.9732 18.5172 23.1702 18.878C22.5161 19.3812 22.0009 20.0426 21.6732 20.8C21.3512 21.731 21.6012 22.15 22.0732 22.247C22.3314 22.2648 22.5897 22.2119 22.8202 22.094C23.159 21.9826 23.4783 21.8186 23.7662 21.608C24.0697 21.4288 24.324 21.177 24.506 20.8752C24.6881 20.5734 24.7923 20.2311 24.8092 19.879C24.7865 19.5275 24.7071 19.1821 24.5742 18.856C25.4373 18.5188 26.3731 18.4113 27.2902 18.544C29.7242 18.83 30.2052 20.349 30.1132 20.989C30.07 21.2159 29.9788 21.4309 29.8456 21.6196C29.7125 21.8083 29.5405 21.9663 29.3412 22.083C29.1722 22.19 29.1162 22.226 29.1312 22.303C29.1512 22.416 29.2312 22.41 29.3762 22.39C29.743 22.276 30.0667 22.0534 30.3045 21.7517C30.5423 21.45 30.683 21.0833 30.7082 20.7C30.7852 19.2 29.3532 17.555 26.8212 17.57L26.8182 17.572ZM8.03816 23.9C7.23016 24.78 6.10516 25.112 5.61916 24.831C5.09716 24.531 5.30216 23.231 6.29416 22.299C6.88261 21.7693 7.51863 21.2949 8.19416 20.882C8.31216 20.81 8.48616 20.708 8.69416 20.582L8.75016 20.551L8.87316 20.474C9.05038 21.0678 9.06645 21.698 8.91972 22.3001C8.77298 22.9021 8.46872 23.4543 8.03816 23.9ZM13.9192 19.9C13.6382 20.585 13.0502 22.34 12.6922 22.242C12.3852 22.16 12.1922 20.83 12.6312 19.516C12.8528 18.8834 13.1757 18.2911 13.5872 17.762C14.0272 17.271 14.5132 17.107 14.6302 17.307C14.5234 18.2019 14.2838 19.0758 13.9192 19.9ZM18.7722 22.222C18.6542 22.283 18.5422 22.322 18.4912 22.294C18.4552 22.274 18.5422 22.194 18.5422 22.194C18.5422 22.194 19.1512 21.539 19.3912 21.243C19.5292 21.069 19.6912 20.865 19.8672 20.634V20.7C19.8672 21.482 19.1102 22.009 18.7732 22.224L18.7722 22.222ZM22.5162 21.368C22.4292 21.307 22.4442 21.102 22.7362 20.463C22.9392 20.0526 23.2228 19.6873 23.5702 19.389C23.6234 19.5404 23.6511 19.6995 23.6522 19.86C23.6561 20.2015 23.5469 20.5348 23.3416 20.8077C23.1363 21.0807 22.8464 21.278 22.5172 21.369L22.5162 21.368Z" fill="#CD6799"/>
</svg>
