<svg width="33" height="30" viewBox="0 0 33 30" fill="none" xmlns="http://www.w3.org/2000/svg">
<g clip-path="url(#clip0_215_444)">
<path d="M31.6439 6.74698C31.6439 6.74698 21.4271 -0.77109 13.5235 0.96385L12.9451 1.15662C11.7885 1.54216 10.8247 2.12048 10.2463 2.89156L9.8608 3.46987L6.96924 8.48192L11.9813 9.44578C14.1018 10.7952 16.8006 11.3735 19.3066 10.7952L28.1741 12.5301L31.6439 6.74698Z" fill="#76B3E1"/>
<path opacity="0.3" d="M31.6439 6.74698C31.6439 6.74698 21.4271 -0.77109 13.5235 0.96385L12.9451 1.15662C11.7885 1.54216 10.8247 2.12048 10.2463 2.89156L9.8608 3.46987L6.96924 8.48192L11.9813 9.44578C14.1018 10.7952 16.8006 11.3735 19.3066 10.7952L28.1741 12.5301L31.6439 6.74698Z" fill="url(#paint0_linear_215_444)"/>
<path d="M10.2462 6.74699L9.47516 6.93976C6.19806 7.90362 5.2342 10.988 6.96914 13.6868C8.89685 16.1928 12.945 17.5422 16.2222 16.5783L28.174 12.5301C28.174 12.5301 17.9571 5.01205 10.2462 6.74699Z" fill="#518AC8"/>
<path opacity="0.3" d="M10.2462 6.74699L9.47516 6.93976C6.19806 7.90362 5.2342 10.988 6.96914 13.6868C8.89685 16.1928 12.945 17.5422 16.2222 16.5783L28.174 12.5301C28.174 12.5301 17.9571 5.01205 10.2462 6.74699Z" fill="url(#paint1_linear_215_444)"/>
<path d="M26.0534 15.4217C24.9741 14.0733 23.517 13.0779 21.8685 12.5627C20.2201 12.0476 18.4553 12.0362 16.8004 12.5301L4.84859 16.3855L0.993164 23.1325L22.5835 26.7952L26.4389 19.8554C27.21 18.506 27.0173 16.9638 26.0534 15.4217Z" fill="url(#paint2_linear_215_444)"/>
<path d="M22.198 22.1687C21.1187 20.8204 19.6616 19.8249 18.0131 19.3097C16.3646 18.7946 14.5999 18.7832 12.945 19.2771L0.993164 23.1325C0.993164 23.1325 11.21 30.8434 19.1136 28.9157L19.692 28.7229C22.9691 27.759 24.1257 24.6747 22.198 22.1687Z" fill="url(#paint3_linear_215_444)"/>
</g>
<defs>
<linearGradient id="paint0_linear_215_444" x1="5.52346" y1="0.578308" x2="29.5235" y2="12.241" gradientUnits="userSpaceOnUse">
<stop offset="0.1" stop-color="#76B3E1"/>
<stop offset="0.3" stop-color="#DCF2FD"/>
<stop offset="1" stop-color="#76B3E1"/>
</linearGradient>
<linearGradient id="paint1_linear_215_444" x1="18.6896" y1="6.28434" x2="14.4872" y2="20.2795" gradientUnits="userSpaceOnUse">
<stop stop-color="#76B3E1"/>
<stop offset="0.5" stop-color="#4377BB"/>
<stop offset="1" stop-color="#1F3B77"/>
</linearGradient>
<linearGradient id="paint2_linear_215_444" x1="3.76907" y1="12.3759" x2="28.0389" y2="28.8771" gradientUnits="userSpaceOnUse">
<stop stop-color="#315AA9"/>
<stop offset="0.5" stop-color="#518AC8"/>
<stop offset="1" stop-color="#315AA9"/>
</linearGradient>
<linearGradient id="paint3_linear_215_444" x1="14.7185" y1="14.3615" x2="4.9257" y2="50.2747" gradientUnits="userSpaceOnUse">
<stop stop-color="#4377BB"/>
<stop offset="0.5" stop-color="#1A336B"/>
<stop offset="1" stop-color="#1A336B"/>
</linearGradient>
<clipPath id="clip0_215_444">
<rect width="32" height="29.9373" fill="white" transform="translate(0.222168)"/>
</clipPath>
</defs>
</svg>
