<svg width="50" height="50" viewBox="0 0 51 51" fill="none" xmlns="http://www.w3.org/2000/svg">
<rect x="0.666504" width="50" height="50" rx="25" fill="#FFBA08"/>
<g clip-path="url(#clip0_214_339)">
<path d="M40.7081 10.75H10.6248C9.99538 10.7517 9.39226 11.0024 8.94722 11.4475C8.50219 11.8925 8.25143 12.4956 8.24976 13.125V36.875C8.24976 37.5049 8.49998 38.109 8.94538 38.5544C9.39078 38.9998 9.99487 39.25 10.6248 39.25H40.7081C41.338 39.25 41.9421 38.9998 42.3875 38.5544C42.8329 38.109 43.0831 37.5049 43.0831 36.875V13.125C43.0814 12.4956 42.8307 11.8925 42.3856 11.4475C41.9406 11.0024 41.3375 10.7517 40.7081 10.75ZM41.4998 36.875C41.4993 37.0848 41.4158 37.286 41.2674 37.4343C41.119 37.5827 40.9179 37.6662 40.7081 37.6667H10.6248C10.4149 37.6662 10.2138 37.5827 10.0654 37.4343C9.91705 37.286 9.83351 37.0848 9.83309 36.875V13.125C9.83556 12.9158 9.91975 12.7159 10.0677 12.5679C10.2156 12.42 10.4156 12.3358 10.6248 12.3333H40.7081C40.9173 12.3358 41.1172 12.42 41.2652 12.5679C41.4131 12.7159 41.4973 12.9158 41.4998 13.125V36.875ZM15.1436 30.3105L14.0242 29.1911L19.0053 24.2083L14.0226 19.2272L15.142 18.1077L21.2442 24.2083L15.1436 30.3105ZM30.4164 29.75H22.4998V28.1667H30.4164V29.75Z" fill="#221D41"/>
</g>
<defs>
<clipPath id="clip0_214_339">
<rect width="38" height="38" fill="white" transform="translate(6.6665 6)"/>
</clipPath>
</defs>
</svg>
