<svg width="33" height="32" viewBox="0 0 33 32" fill="none" xmlns="http://www.w3.org/2000/svg">
<g clip-path="url(#clip0_215_545)">
<path d="M9.48341 8.71205L7.41516 6.6438L7.42391 21.5938L7.44866 22.2925C7.45891 22.6213 7.51991 22.9923 7.62166 23.3768L24.0097 29.1555L28.1062 27.3405L28.1077 27.3355L9.48341 8.71205Z" fill="#00D2B8"/>
<path d="M7.62166 23.3768L7.62266 23.3778C7.62166 23.3711 7.61816 23.3636 7.61816 23.3566C7.61816 23.3636 7.61916 23.3701 7.62166 23.3768ZM28.1062 27.3406L24.0097 29.1556L7.62266 23.3778C7.93566 24.5788 8.62866 25.9288 9.37441 26.6671L14.7224 31.9846L26.6137 32.0001L28.1077 27.3356L28.1062 27.3406Z" fill="#55DDCA"/>
<path d="M1.0459 16.2645C0.516396 16.8298 0.779396 17.9958 1.6319 18.8548L5.30915 22.5625L7.62165 23.3768C7.5199 22.9923 7.4589 22.6213 7.44865 22.2925L7.4239 21.5938L7.41515 6.6438L1.0459 16.2645Z" fill="#0081C6"/>
<path d="M24.1442 6.83575C23.7597 6.7375 23.3909 6.67675 23.0567 6.66625L22.3182 6.64075L7.41516 6.64275L28.1097 27.3355H28.1114L29.9289 23.235L24.1442 6.83575Z" fill="#0079B3"/>
<path d="M24.1254 6.83179C24.1334 6.83354 24.1396 6.83579 24.1449 6.83654L24.1441 6.83579C24.1396 6.83354 24.1334 6.83354 24.1254 6.83179ZM27.4314 8.59154C26.6804 7.83429 25.3481 7.14604 24.1449 6.83654L29.9289 23.235L28.1114 27.3355H28.1096L32.5511 25.917L32.5606 13.74L27.4314 8.59154Z" fill="#00A4E4"/>
<path d="M23.3339 4.53726L19.6272 0.857757C18.7699 0.00850749 17.6034 -0.255742 17.0397 0.272257L7.41516 6.64276L22.3182 6.64076L23.0567 6.66626C23.3909 6.67676 23.7597 6.73751 24.1442 6.83576L23.3339 4.53726Z" fill="#00D2B8"/>
</g>
<defs>
<clipPath id="clip0_215_545">
<rect width="32" height="32" fill="white" transform="translate(0.666626)"/>
</clipPath>
</defs>
</svg>
