<svg width="33" height="32" viewBox="0 0 33 32" fill="none" xmlns="http://www.w3.org/2000/svg">
<path d="M6.30005 24.6L6.47005 24.363L14.49 9.149L14.507 8.988L10.972 2.348C10.9073 2.22658 10.8061 2.12858 10.6826 2.06787C10.5591 2.00715 10.4197 1.9868 10.284 2.00969C10.1483 2.03258 10.0233 2.09755 9.92657 2.19541C9.82985 2.29327 9.76635 2.41907 9.74505 2.555L6.30005 24.6Z" fill="#FFC24A"/>
<path d="M6.3999 24.42L6.5279 24.17L14.4649 9.114L10.9389 2.448C10.8808 2.33207 10.7866 2.23811 10.6706 2.18018C10.5545 2.12225 10.4229 2.10348 10.2953 2.12668C10.1677 2.14988 10.051 2.2138 9.96278 2.30887C9.87456 2.40393 9.81952 2.52502 9.8059 2.654L6.3999 24.42Z" fill="#FFA712"/>
<path d="M17.084 14.01L19.716 11.31L17.083 6.28902C17.025 6.18096 16.9388 6.09064 16.8336 6.02768C16.7284 5.96471 16.6081 5.93146 16.4855 5.93146C16.3628 5.93146 16.2425 5.96471 16.1373 6.02768C16.0321 6.09064 15.9459 6.18096 15.888 6.28902L14.481 8.97102V9.20002L17.084 14.01Z" fill="#F4BD62"/>
<path d="M17.0371 13.9L19.5961 11.28L17.0371 6.39998C16.9952 6.29434 16.9237 6.20308 16.8311 6.1372C16.7385 6.07131 16.6288 6.03361 16.5153 6.02864C16.4018 6.02367 16.2892 6.05165 16.1913 6.1092C16.0933 6.16674 16.014 6.25141 15.9631 6.35298L14.5491 9.08198L14.5071 9.22098L17.0371 13.9Z" fill="#FFA50E"/>
<path d="M6.302 24.601L6.379 24.523L6.658 24.41L16.918 14.188L17.048 13.834L14.489 8.95599L6.302 24.601Z" fill="#F6820C"/>
<path d="M17.412 29.756L26.7001 24.577L24.046 8.24601C24.027 8.13089 23.9766 8.02323 23.9004 7.93486C23.8242 7.84649 23.7252 7.78083 23.6141 7.74508C23.503 7.70933 23.3842 7.70487 23.2708 7.7322C23.1574 7.75954 23.0537 7.8176 22.9711 7.90001L6.30005 24.6L15.533 29.755C15.8201 29.9152 16.1433 29.9993 16.472 29.9993C16.8008 29.9993 17.124 29.9152 17.411 29.755" fill="#FDE068"/>
<path d="M26.6149 24.534L23.9829 8.32599C23.9783 8.21588 23.941 8.10962 23.876 8.02066C23.8109 7.9317 23.7209 7.86405 23.6174 7.82625C23.5139 7.78846 23.4015 7.78223 23.2944 7.80835C23.1873 7.83447 23.0904 7.89177 23.0159 7.97299L6.3999 24.569L15.5309 29.669C15.8157 29.8279 16.1363 29.9112 16.4624 29.9112C16.7885 29.9112 17.1091 29.8279 17.3939 29.669L26.6149 24.534Z" fill="#FCCA3F"/>
<path d="M17.412 29.6C17.125 29.7602 16.8018 29.8443 16.473 29.8443C16.1443 29.8443 15.8211 29.7602 15.534 29.6L6.37605 24.522L6.30005 24.6L15.533 29.755C15.8201 29.9152 16.1433 29.9993 16.472 29.9993C16.8008 29.9993 17.124 29.9152 17.411 29.755L26.7001 24.577L26.677 24.437L17.412 29.6Z" fill="#EEAB37"/>
</svg>
