<svg width="33" height="32" viewBox="0 0 33 32" fill="none" xmlns="http://www.w3.org/2000/svg">
<path d="M2.91861 17.4132C2.13813 16.6327 2.13813 15.3673 2.91861 14.5868L14.9201 2.58536C15.7006 1.80488 16.966 1.80488 17.7465 2.58536L29.7479 14.5868C30.5284 15.3673 30.5284 16.6327 29.7479 17.4132L17.7465 29.4146C16.966 30.1951 15.7006 30.1951 14.9201 29.4146L2.91861 17.4132Z" fill="#EE513B"/>
<path d="M12.4821 5.06152L11.2668 6.27686L14.4057 9.41577C14.2787 9.68819 14.2078 9.99201 14.2078 10.3124C14.2078 11.222 14.7793 11.9981 15.5828 12.3012V19.9798C14.7793 20.2829 14.2078 21.059 14.2078 21.9686C14.2078 23.1422 15.1592 24.0936 16.3328 24.0936C17.5064 24.0936 18.4578 23.1422 18.4578 21.9686C18.4578 21.144 17.9881 20.429 17.3016 20.0768V12.3117L20.3021 15.3122C20.1813 15.5791 20.1141 15.8754 20.1141 16.1874C20.1141 17.361 21.0655 18.3124 22.2391 18.3124C23.4127 18.3124 24.3641 17.361 24.3641 16.1874C24.3641 15.0138 23.4127 14.0624 22.2391 14.0624C22.011 14.0624 21.7914 14.0983 21.5854 14.1648L18.3629 10.9423C18.4246 10.7433 18.4578 10.5317 18.4578 10.3124C18.4578 9.13878 17.5064 8.18738 16.3328 8.18738C16.1135 8.18738 15.902 8.22061 15.7029 8.2823L12.4821 5.06152Z" fill="white"/>
</svg>
