<svg width="36" height="36" viewBox="0 0 36 36" fill="none" xmlns="http://www.w3.org/2000/svg">
<path d="M18 2.25C9.29812 2.25 2.25 9.29812 2.25 18C2.25 24.9694 6.75844 30.8559 13.0191 32.9428C13.8066 33.0806 14.1019 32.6081 14.1019 32.1947C14.1019 31.8206 14.0822 30.5803 14.0822 29.2613C10.125 29.9897 9.10125 28.2966 8.78625 27.4106C8.60906 26.9578 7.84125 25.56 7.17188 25.1859C6.62062 24.8906 5.83312 24.1622 7.15219 24.1425C8.3925 24.1228 9.27844 25.2844 9.57375 25.7569C10.9913 28.1391 13.2553 27.4697 14.1609 27.0563C14.2988 26.0325 14.7122 25.3434 15.165 24.9497C11.6606 24.5559 7.99875 23.1975 7.99875 17.1731C7.99875 15.4603 8.60906 14.0428 9.61313 12.9403C9.45563 12.5466 8.90437 10.9322 9.77062 8.76656C9.77062 8.76656 11.0897 8.35313 14.1019 10.3809C15.3619 10.0266 16.7006 9.84937 18.0394 9.84937C19.3781 9.84937 20.7169 10.0266 21.9769 10.3809C24.9891 8.33344 26.3081 8.76656 26.3081 8.76656C27.1744 10.9322 26.6231 12.5466 26.4656 12.9403C27.4697 14.0428 28.08 15.4406 28.08 17.1731C28.08 23.2172 24.3984 24.5559 20.8941 24.9497C21.465 25.4419 21.9572 26.3869 21.9572 27.8634C21.9572 29.97 21.9375 31.6631 21.9375 32.1947C21.9375 32.6081 22.2328 33.1003 23.0203 32.9428C26.147 31.8873 28.8639 29.8778 30.7887 27.1973C32.7135 24.5167 33.7492 21.3 33.75 18C33.75 9.29812 26.7019 2.25 18 2.25Z" fill="currentColor"/>
</svg>
