<svg width="32" height="32" viewBox="0 0 32 32" fill="none" xmlns="http://www.w3.org/2000/svg">
<g clip-path="url(#clip0_250_41)">
<rect x="2" y="2" width="28" height="28" fill="#FFBA08"/>
<path d="M18.625 24.1267L20.4288 22.9331C20.5702 23.3772 21.4654 24.432 22.5962 24.432C23.7269 24.432 24.2519 23.8144 24.2519 23.405C24.2519 22.2892 23.0973 21.8958 22.5427 21.7068C22.4523 21.676 22.3778 21.6507 22.3269 21.6285C22.3008 21.6171 22.2613 21.602 22.2106 21.5827C21.5938 21.347 19.3183 20.4776 19.3183 17.9575C19.3183 15.1817 21.9971 14.8625 22.6029 14.8625C22.9992 14.8625 24.9048 14.9111 25.8538 16.6945L24.1038 17.9159C23.7202 17.1386 23.0828 16.8819 22.6904 16.8819C21.7212 16.8819 21.5192 17.5924 21.5192 17.9159C21.5192 18.8234 22.5723 19.2302 23.4614 19.5737C23.694 19.6635 23.9154 19.7491 24.1038 19.8381C25.0731 20.2961 26.5 21.0456 26.5 23.405C26.5 24.5867 25.5088 26.5 23.0135 26.5C19.6615 26.5 18.7731 24.4875 18.625 24.1267Z" fill="#3E3E3E"/>
<path d="M9.875 24.3637L11.7551 23.1707C11.9024 23.6146 12.4749 24.4331 13.3055 24.4331C14.1361 24.4331 14.5612 23.5799 14.5612 23.1707V15.125H16.8734V23.1707C16.9108 24.2805 16.2954 26.5 13.5791 26.5C11.0816 26.5 10.0434 25.0157 9.875 24.3637Z" fill="#3E3E3E"/>
</g>
<defs>
<clipPath id="clip0_250_41">
<rect width="28" height="28" fill="white" transform="translate(2 2)"/>
</clipPath>
</defs>
</svg>
