<svg width="200" height="200" viewBox="0 0 200 200" fill="none" xmlns="http://www.w3.org/2000/svg">
<path d="M24.8512 91.9451C26.7412 94.1259 62.6517 106.048 75.0096 120.586C87.5128 135.125 92.8921 148.064 91.1475 160.568C89.4029 173.071 81.6974 172.78 78.4988 177.432C75.155 181.939 70.5026 187.61 61.7794 187.028C50.1484 186.301 38.2268 180.486 29.649 160.422C21.0711 140.359 21.6527 121.459 22.3796 110.991C22.9612 100.377 24.8512 91.9451 24.8512 91.9451Z" fill="url(#paint0_linear_423_50)"/>
<path d="M25.8689 95.2888L79.662 175.542L77.1904 178.305L25.8689 95.2888Z" fill="url(#paint1_linear_423_50)"/>
<path d="M163.26 13C160.788 17.0708 103.796 46.4389 86.7861 73.917C69.6305 101.541 64.8327 123.203 71.0844 143.557C77.336 163.911 89.1123 163.039 95.8001 169.727C102.488 176.415 111.647 184.556 126.331 181.358C145.522 176.996 163.986 164.202 173.146 128.437C182.305 92.6719 176.344 61.2684 172.419 43.9674C168.493 26.6663 163.26 13 163.26 13Z" fill="url(#paint2_linear_423_50)"/>
<path d="M162.242 19.1062L93.1829 167.11L97.2537 171.181L162.242 19.1062Z" fill="url(#paint3_linear_423_50)"/>
<defs>
<linearGradient id="paint0_linear_423_50" x1="-411.066" y1="4408.15" x2="7236.33" y2="5103.06" gradientUnits="userSpaceOnUse">
<stop stop-color="#8AC443"/>
<stop offset="1" stop-color="#75B843"/>
</linearGradient>
<linearGradient id="paint1_linear_423_50" x1="-555.172" y1="3709.65" x2="6042.78" y2="4181.69" gradientUnits="userSpaceOnUse">
<stop stop-color="#75B843"/>
<stop offset="1" stop-color="#4B9744"/>
</linearGradient>
<linearGradient id="paint2_linear_423_50" x1="11952.5" y1="7022.49" x2="-619.078" y2="8791.93" gradientUnits="userSpaceOnUse">
<stop stop-color="#C1DB74"/>
<stop offset="1" stop-color="#ACD259"/>
</linearGradient>
<linearGradient id="paint3_linear_423_50" x1="9006.77" y1="5856.64" x2="-1857.35" y2="6608.16" gradientUnits="userSpaceOnUse">
<stop stop-color="#ACD259"/>
<stop offset="1" stop-color="#8AC443"/>
</linearGradient>
</defs>
</svg>
