<svg width="33" height="32" viewBox="0 0 33 32" fill="none" xmlns="http://www.w3.org/2000/svg">
<path fill-rule="evenodd" clip-rule="evenodd" d="M13.683 2C11.4859 2 9.70487 3.72453 9.70487 5.85185V8.51852H16.5901V9.25926H6.64477C4.4477 9.25926 2.66663 10.9838 2.66663 13.1111L2.66663 18.8889C2.66663 21.0162 4.4477 22.7407 6.64477 22.7407H8.93985V19.4815C8.93985 17.3542 10.7209 15.6296 12.918 15.6296H20.2622C22.1213 15.6296 23.6284 14.1704 23.6284 12.3704V5.85185C23.6284 3.72453 21.8473 2 19.6502 2H13.683ZM12.765 6.74074C13.5255 6.74074 14.142 6.14378 14.142 5.40741C14.142 4.67103 13.5255 4.07407 12.765 4.07407C12.0045 4.07407 11.3879 4.67103 11.3879 5.40741C11.3879 6.14378 12.0045 6.74074 12.765 6.74074Z" fill="url(#paint0_linear_213_220)"/>
<path fill-rule="evenodd" clip-rule="evenodd" d="M19.6502 30C21.8472 30 23.6283 28.2755 23.6283 26.1482V23.4815L16.7431 23.4815L16.7431 22.7408L26.6884 22.7408C28.8855 22.7408 30.6666 21.0162 30.6666 18.8889V13.1111C30.6666 10.9838 28.8855 9.25928 26.6884 9.25928L24.3934 9.25928V12.5185C24.3934 14.6459 22.6123 16.3704 20.4152 16.3704L13.071 16.3704C11.2119 16.3704 9.70483 17.8296 9.70483 19.6296L9.70483 26.1482C9.70483 28.2755 11.4859 30 13.683 30H19.6502ZM20.5682 25.2593C19.8077 25.2593 19.1912 25.8562 19.1912 26.5926C19.1912 27.329 19.8077 27.9259 20.5682 27.9259C21.3287 27.9259 21.9453 27.329 21.9453 26.5926C21.9453 25.8562 21.3287 25.2593 20.5682 25.2593Z" fill="url(#paint1_linear_213_220)"/>
<defs>
<linearGradient id="paint0_linear_213_220" x1="13.1475" y1="2" x2="13.1475" y2="22.7407" gradientUnits="userSpaceOnUse">
<stop stop-color="#327EBD"/>
<stop offset="1" stop-color="#1565A7"/>
</linearGradient>
<linearGradient id="paint1_linear_213_220" x1="20.1857" y1="9.25928" x2="20.1857" y2="30" gradientUnits="userSpaceOnUse">
<stop stop-color="#FFDA4B"/>
<stop offset="1" stop-color="#F9C600"/>
</linearGradient>
</defs>
</svg>
