<svg width="33" height="32" viewBox="0 0 33 32" fill="none" xmlns="http://www.w3.org/2000/svg">
<g clip-path="url(#clip0_215_675)">
<path d="M29.4611 0.00040905C29.539 -0.00451539 29.6129 0.0353343 29.6517 0.103137C29.6904 0.170939 29.6872 0.254879 29.6434 0.319524L21.7567 11.0327C21.6989 11.0979 21.6159 11.1353 21.5288 11.1353C21.4416 11.1353 21.3586 11.0979 21.3008 11.0327L18.52 7.93271C18.452 7.8622 18.3558 7.82633 18.2583 7.8352C18.1608 7.84406 18.0726 7.8967 18.0185 7.97829L16.3317 10.1209C16.2784 10.2416 16.2959 10.3818 16.3773 10.4856L21.392 15.6827C21.4498 15.7479 21.5328 15.7852 21.6199 15.7852C21.7071 15.7852 21.7901 15.7479 21.8479 15.6827L31.6949 4.60479C31.753 4.54231 31.8431 4.52108 31.923 4.55105C32.0029 4.58102 32.0569 4.65625 32.0596 4.74155V31.684C32.0633 31.7455 32.0405 31.8057 31.997 31.8493C31.9534 31.8929 31.8932 31.9157 31.8316 31.9119H1.83479C1.77326 31.9157 1.71306 31.8929 1.66947 31.8493C1.62588 31.8057 1.60308 31.7455 1.60685 31.684V0.228349C1.60308 0.166816 1.62588 0.106621 1.66947 0.063029C1.71306 0.0194373 1.77326 -0.00336358 1.83479 0.00040905H29.4611ZM21.7111 18.19C20.3539 18.1661 19.0459 18.6979 18.0904 19.662C17.1349 20.6262 16.6148 21.9389 16.6509 23.2958C16.6509 26.4414 18.9303 28.4473 21.8935 28.4473C23.2652 28.4814 24.6103 28.0651 25.7229 27.262C25.826 27.1683 25.8454 27.0134 25.7684 26.8973L24.9479 25.6664C24.8556 25.5606 24.6986 25.541 24.5832 25.6208C23.8699 26.1079 23.0305 26.3772 22.167 26.3958C20.5714 26.3958 19.5685 25.3929 19.3861 24.2076C19.3894 24.1587 19.4284 24.1197 19.4773 24.1164H26.3611C26.5078 24.1065 26.6247 23.9896 26.6346 23.8429V23.5694C26.6346 20.3782 24.6287 18.19 21.7111 18.19ZM14.9185 16.4576C13.5339 15.3258 11.7818 14.7418 9.99502 14.8165C6.89505 14.8165 4.98035 16.64 4.98035 18.8282C4.98035 23.7973 12.5479 22.2017 12.5479 24.5267C12.5479 25.2561 11.8185 25.9855 10.2686 25.9855C8.79645 25.9977 7.37618 25.4426 6.3024 24.4355C6.2383 24.3756 6.15145 24.3462 6.06413 24.355C5.9768 24.3637 5.89749 24.4097 5.84653 24.4811L4.66124 26.1223C4.58433 26.2384 4.60369 26.3933 4.70683 26.487C5.9377 27.6267 7.67004 28.4017 10.0862 28.4017C13.6421 28.4017 15.3744 26.5782 15.4656 24.2076C15.4656 19.2841 7.89798 20.6973 7.89798 18.6003C7.89798 17.8253 8.5818 17.2782 9.76709 17.2782C11.0737 17.2603 12.3462 17.6952 13.3685 18.5091C13.4286 18.5583 13.5061 18.5813 13.5833 18.5727C13.6605 18.5641 13.731 18.5247 13.7788 18.4635L14.9641 16.8679C15.0133 16.8078 15.0363 16.7304 15.0277 16.6532C15.0191 16.576 14.9798 16.5055 14.9185 16.4576ZM21.7567 20.1959C22.9967 20.1265 24.0671 21.0555 24.1729 22.2929C24.1696 22.3418 24.1306 22.3808 24.0817 22.3841H19.4317C19.3828 22.3808 19.3439 22.3418 19.3405 22.2929C19.493 21.0798 20.5343 20.1761 21.7567 20.1959Z" fill="#2CB134"/>
</g>
<defs>
<clipPath id="clip0_215_675">
<rect width="32" height="32" fill="white" transform="translate(0.833252)"/>
</clipPath>
</defs>
</svg>
