<svg width="33" height="32" viewBox="0 0 33 32" fill="none" xmlns="http://www.w3.org/2000/svg">
<path d="M16.6248 30.2382C24.9704 30.2382 31.7359 23.4727 31.7359 15.1271C31.7359 6.78147 24.9704 0.0159912 16.6248 0.0159912C8.27915 0.0159912 1.51367 6.78147 1.51367 15.1271C1.51367 23.4727 8.27915 30.2382 16.6248 30.2382Z" fill="#FFCB4C"/>
<path d="M13.5349 18.6986C13.406 18.5955 13.3056 18.4551 13.2576 18.2862C13.1384 17.8773 13.3731 17.4702 13.782 17.3786C17.8069 16.4711 20.5171 18.5902 20.6318 18.6808C20.9731 18.9528 21.0398 19.432 20.7856 19.752C20.5313 20.0702 20.0496 20.1084 19.7091 19.8382C19.6113 19.7635 17.4664 18.1288 14.214 18.8622C13.9704 18.9164 13.7216 18.848 13.5349 18.6986Z" fill="#65471B"/>
<path d="M12.2861 12.2933C13.3293 12.2933 14.175 11.2363 14.175 9.93242C14.175 8.62854 13.3293 7.57153 12.2861 7.57153C11.2429 7.57153 10.3972 8.62854 10.3972 9.93242C10.3972 11.2363 11.2429 12.2933 12.2861 12.2933Z" fill="#65471B"/>
<path d="M22.2915 13.2373C23.3347 13.2373 24.1804 12.1803 24.1804 10.8765C24.1804 9.57257 23.3347 8.51556 22.2915 8.51556C21.2483 8.51556 20.4026 9.57257 20.4026 10.8765C20.4026 12.1803 21.2483 13.2373 22.2915 13.2373Z" fill="#65471B"/>
<path d="M15.9813 31.2436C15.9813 31.2436 17.1057 30.8782 17.2515 30.0418C17.4053 29.1778 16.6968 29.0045 16.6968 29.0045C16.6968 29.0045 17.6222 28.8196 17.7386 27.7813C17.848 26.8027 16.9733 26.5698 16.9733 26.5698C16.9733 26.5698 17.8355 26.2142 17.8764 25.2018C17.9102 24.3493 16.992 23.9325 16.992 23.9325C16.992 23.9325 21.4702 22.8471 21.9306 22.7405C22.3893 22.6338 23.104 22.1938 22.8809 21.2347C22.6595 20.2747 21.8106 20.2409 21.3724 20.3431C20.9333 20.4453 15.3777 21.7351 13.4613 22.1813L12.1822 22.4782C11.7022 22.5911 11.4844 22.3805 11.8231 22.0231C12.2746 21.5467 12.5635 21.0196 12.664 20.1449C12.7697 19.2249 12.4577 18.0889 12.2791 17.648C11.9466 16.8293 11.3857 16.1822 10.7377 15.96C9.72707 15.6133 9.00885 16.2453 9.36707 17.3476C9.90396 18.9956 9.55196 20.3476 8.62663 21.1636C6.44974 23.0809 5.43729 24.448 6.11107 27.3618C6.84707 30.5396 10.0017 32.5849 13.1795 31.8489L15.9813 31.2436Z" fill="#F19020"/>
<path d="M8.88786 5.64536C8.74208 5.56713 8.61853 5.44625 8.54031 5.29069C8.34831 4.91025 8.50475 4.46669 8.88964 4.30225C12.6816 2.67469 15.7332 4.26402 15.8612 4.33247C16.2461 4.5378 16.4016 4.99647 16.2087 5.35824C16.0167 5.71824 15.551 5.84358 15.1661 5.64091C15.0567 5.58491 12.6488 4.36802 9.58564 5.68269C9.3572 5.77958 9.09942 5.75824 8.88786 5.64536ZM19.6745 8.97869C19.5359 8.89158 19.4203 8.76269 19.3528 8.6018C19.1865 8.20891 19.3732 7.7778 19.7688 7.63825C23.663 6.27291 26.5999 8.06491 26.7225 8.14224C27.0914 8.37336 27.2159 8.8418 26.9999 9.18936C26.7847 9.53602 26.3101 9.62936 25.9412 9.40091C25.8345 9.33691 23.5172 7.96002 20.3705 9.06402C20.1341 9.14491 19.879 9.10491 19.6745 8.97869Z" fill="#65471B"/>
</svg>
