<svg width="32" height="32" viewBox="0 0 33 32" fill="none" xmlns="http://www.w3.org/2000/svg">
<path d="M2.66663 16V30H16.6666H30.6666V16V2H16.6666H2.66663V16Z" fill="#007ACC"/>
<path d="M8.85853 16.0928L8.84964 17.2395H10.6719H12.4941V22.4173V27.595H13.783H15.0719V22.4173L15.0719 17.2395H16.8941H18.7163V16.115C18.7163 15.4928 18.703 14.9728 18.6852 14.9595C18.6719 14.9417 16.4541 14.9328 13.7652 14.9373L8.87186 14.9506L8.85853 16.0928Z" fill="white"/>
<path d="M25.26 14.918C25.9711 15.0958 26.5133 15.4114 27.0111 15.9269C27.2689 16.2025 27.6511 16.7047 27.6822 16.8247C27.6911 16.8603 26.4733 17.678 25.7355 18.1358C25.7089 18.1536 25.6022 18.038 25.4822 17.8603C25.1222 17.3358 24.7444 17.1092 24.1666 17.0692C23.3178 17.0114 22.7711 17.4558 22.7755 18.198C22.7755 18.4158 22.8066 18.5447 22.8955 18.7225C23.0822 19.1092 23.4289 19.3403 24.5178 19.8114C26.5222 20.6736 27.38 21.2425 27.9133 22.0514C28.5089 22.9536 28.6422 24.3936 28.2378 25.4647C27.7933 26.6292 26.6911 27.4203 25.14 27.6825C24.66 27.7669 23.5222 27.7536 23.0066 27.6603C21.8822 27.4603 20.8155 26.9047 20.1578 26.1758C19.9 25.8914 19.3978 25.1492 19.4289 25.0958C19.4422 25.078 19.5578 25.0069 19.6866 24.9314C19.8111 24.8603 20.2822 24.5892 20.7266 24.3314L21.5311 23.8647L21.7 24.1136C21.9355 24.4736 22.4511 24.9669 22.7622 25.1314C23.6555 25.6025 24.8822 25.5358 25.4866 24.9936C25.7444 24.758 25.8511 24.5136 25.8511 24.1536C25.8511 23.8292 25.8111 23.6869 25.6422 23.4425C25.4244 23.1314 24.98 22.8692 23.7178 22.3225C22.2733 21.7003 21.6511 21.3136 21.0822 20.7003C20.7533 20.3447 20.4422 19.7758 20.3133 19.3003C20.2066 18.9047 20.18 17.9136 20.2644 17.5136C20.5622 16.118 21.6155 15.1447 23.1355 14.8558C23.6289 14.7625 24.7755 14.798 25.26 14.918Z" fill="white"/>
</svg>
