<svg width="24" height="24" viewBox="0 0 25 24" fill="none" xmlns="http://www.w3.org/2000/svg">
<g clip-path="url(#clip0_214_404)">
<path d="M12.6666 24C19.294 24 24.6666 18.6274 24.6666 12C24.6666 5.37258 19.294 0 12.6666 0C6.03921 0 0.666626 5.37258 0.666626 12C0.666626 18.6274 6.03921 24 12.6666 24Z" fill="#F0F0F0"/>
<path d="M12.1447 12H24.6664C24.6664 10.9169 24.522 9.86768 24.253 8.86957H12.1447V12Z" fill="#D80027"/>
<path d="M12.1447 5.73855H22.9051C22.1705 4.53986 21.2313 3.48034 20.1362 2.60809H12.1447V5.73855Z" fill="#D80027"/>
<path d="M12.6663 24C15.4905 24 18.0863 23.0239 20.1362 21.3914H5.19653C7.24638 23.0239 9.84217 24 12.6663 24Z" fill="#D80027"/>
<path d="M2.42772 18.2599H22.9052C23.4949 17.2976 23.9523 16.2457 24.2531 15.1295H1.07983C1.38063 16.2457 1.83799 17.2976 2.42772 18.2599Z" fill="#D80027"/>
<path d="M6.22525 1.87397H7.3188L6.30161 2.61295L6.69016 3.80869L5.67302 3.0697L4.65588 3.80869L4.9915 2.7757C4.09591 3.52172 3.31094 4.39575 2.66406 5.36963H3.01445L2.36697 5.84002C2.26609 6.0083 2.16934 6.17925 2.07663 6.35273L2.38581 7.30434L1.80897 6.88523C1.66558 7.18903 1.53442 7.49967 1.41653 7.81678L1.75717 8.86528H3.01445L1.99727 9.60427L2.38581 10.8L1.36867 10.061L0.759392 10.5037C0.698407 10.9939 0.666626 11.4932 0.666626 12H12.6666C12.6666 5.37262 12.6666 4.59131 12.6666 0C10.2961 0 8.08624 0.687656 6.22525 1.87397ZM6.69016 10.8L5.67302 10.061L4.65588 10.8L5.04442 9.60427L4.02724 8.86528H5.28452L5.67302 7.66955L6.06152 8.86528H7.3188L6.30161 9.60427L6.69016 10.8ZM6.30161 6.10861L6.69016 7.30434L5.67302 6.56536L4.65588 7.30434L5.04442 6.10861L4.02724 5.36963H5.28452L5.67302 4.17389L6.06152 5.36963H7.3188L6.30161 6.10861ZM10.9945 10.8L9.97736 10.061L8.96022 10.8L9.34877 9.60427L8.33158 8.86528H9.58886L9.97736 7.66955L10.3659 8.86528H11.6231L10.606 9.60427L10.9945 10.8ZM10.606 6.10861L10.9945 7.30434L9.97736 6.56536L8.96022 7.30434L9.34877 6.10861L8.33158 5.36963H9.58886L9.97736 4.17389L10.3659 5.36963H11.6231L10.606 6.10861ZM10.606 2.61295L10.9945 3.80869L9.97736 3.0697L8.96022 3.80869L9.34877 2.61295L8.33158 1.87397H9.58886L9.97736 0.678234L10.3659 1.87397H11.6231L10.606 2.61295Z" fill="#0052B4"/>
</g>
<defs>
<clipPath id="clip0_214_404">
<rect width="24" height="24" fill="white" transform="translate(0.666626)"/>
</clipPath>
</defs>
</svg>
