<svg width="46" height="46" viewBox="0 0 46 46" fill="none" xmlns="http://www.w3.org/2000/svg">
<path d="M0 22.52C0 17.09 0 14.374 1.687 12.687C3.374 11 6.09 11 11.52 11H12.48C17.91 11 20.626 11 22.313 12.687C24 14.374 24 17.09 24 22.52V23.48C24 28.91 24 31.626 22.313 33.313C20.626 35 17.91 35 12.48 35H11.52C6.09 35 3.374 35 1.687 33.313C0 31.626 0 28.91 0 23.48V22.52Z" fill="#0077FF"/>
<path d="M12.7698 28.2898C7.29981 28.2898 4.1798 24.5398 4.0498 18.2998H6.7898C6.8798 22.8798 8.8998 24.8198 10.4998 25.2198V18.2998H13.0798V22.2498C14.6598 22.0798 16.3198 20.2798 16.8798 18.2998H19.4598C19.0298 20.7398 17.2298 22.5398 15.9498 23.2798C17.2298 23.8798 19.2798 25.4498 20.0598 28.2898H17.2198C16.6098 26.3898 15.0898 24.9198 13.0798 24.7198V28.2898H12.7698Z" fill="white"/>
<path d="M33.595 29.2099C34.2481 29.2091 34.8897 29.0383 35.4568 28.7143C36.0238 28.3903 36.4967 27.9242 36.829 27.3619L37.312 28.9999H39.118V18.0799H36.703V24.3999C36.703 25.9549 35.674 27.0469 34.267 27.0469C32.881 27.0469 31.915 25.9549 31.915 24.4009V18.0799H29.5V24.6739C29.5 27.2989 31.264 29.2099 33.595 29.2099ZM43.371 16.5259C44.232 16.5259 44.862 15.9159 44.862 15.0559C44.862 14.1949 44.232 13.5649 43.372 13.5649C42.489 13.5649 41.859 14.1949 41.859 15.0549C41.859 15.9169 42.489 16.5259 43.371 16.5259ZM44.568 28.9999V18.0799H42.153V28.9999H44.568Z" fill="black"/>
</svg>
